# xmcd
#
# Track frame offsets: 
#        150
#        14873
#        29145
#        40274
#        54642
#        68463
#        82307
#        96291
#        112091
#        126699
#        140424
#        153849
#        167410
#        177841
#        190872
#        214670
#        243321
#        258639
#        273833
#        297669
#        317316
#
# Disc length: 4467 seconds
#
# Revision: 0
# Processed by: cddbd v1.5.2PL0 Copyright (c) Steve Scherf et al.
# Submitted via: ExactAudioCopyFreeDBPlugin 1.0
#
DISCID=3f117115
DTITLE=ザ・キング・トーンズ - ゴールデン☆ベスト
DYEAR=2008
DGENRE=Blues
TTITLE0=グッド・ナイト・ベイビー
TTITLE1=捨てられた仔犬のように
TTITLE2=DOO-WOP! TONIGHT
TTITLE3=家へ帰ろう
TTITLE4=愛のノクターン
TTITLE5=君だけが
TTITLE6=天気予報がはずれたら
TTITLE7=暗い港のブルース
TTITLE8=月光のノクターン
TTITLE9=ドック・オブ・ベイ
TTITLE10=愛さずにはいられない
TTITLE11=ライオンは寝ている
TTITLE12=煙が目にしみる
TTITLE13=オンリー・ユー
TTITLE14=DOWN TOWN
TTITLE15=夢の中で会えるでしょう
TTITLE16=夕焼けレッドで帰りましょう
TTITLE17=グッド・ナイト・ベイビー（英語版）
TTITLE18=涙のミラーボール
TTITLE19=On The Wave ～伝説をつくろう～
TTITLE20=グッド・ナイト・ベイビー（カヴァー版）
EXTD=
EXTT0=
EXTT1=
EXTT2=
EXTT3=
EXTT4=
EXTT5=
EXTT6=
EXTT7=
EXTT8=
EXTT9=
EXTT10=
EXTT11=
EXTT12=
EXTT13=
EXTT14=
EXTT15=
EXTT16=
EXTT17=
EXTT18=
EXTT19=
EXTT20=
PLAYORDER=
